*******************************************************************************
                  The.Birds.1963.HDTVRip.AC3.X264-BARC0DE
*******************************************************************************

-------------------------------------------------------------------------------
                             General Information
-------------------------------------------------------------------------------
Type.................: Movie
Name.................: The Birds
Movie Information....: http://www.imdb.com/title/tt0056869/
Genre................: Horror | Romance | Thriller
-------------------------------------------------------------------------------
                                   PLOT
-------------------------------------------------------------------------------
A wealthy San Francisco socialite pursues a potential boyfriend to a small 
Northern California town that slowly takes a turn for the bizarre when birds of 
all kinds suddenly begin to attack people there in increasing numbers and with 
increasing viciousness.

-------------------------------------------------------------------------------
                                   CAST
-------------------------------------------------------------------------------
Tippi Hedren ... Melanie Daniels (as 'Tippi' Hedren) 
Suzanne Pleshette ... Annie Hayworth 
Rod Taylor ... Mitch Brenner 
Jessica Tandy ... Lydia Brenner 
Veronica Cartwright ... Cathy Brenner 
Ethel Griffies ... Mrs. Bundy - Ornithologist 
Charles McGraw ... Sebastian Sholes - Fisherman in Diner 
Doreen Lang ... Hysterical Mother in Diner 
Ruth McDevitt ... Mrs. MacGruder - Pet Store Clerk 
Joe Mantell ... Traveling Salesman at Diner's Bar 
Malcolm Atterbury ... Deputy Al Malone 
Karl Swenson ... Drunken Doomsayer in Diner 
Elizabeth Wilson ... Helen Carter 
Lonny Chapman ... Deke Carter - Diner Owner 
Doodles Weaver ... Fisherman Helping with Rental Boat

-------------------------------------------------------------------------------
                                   MEDiA iNFO
-------------------------------------------------------------------------------

General
Complete name                    : The.Birds.1963.HDTVRip.AC3.X264-BARC0DE.mkv
Format                           : Matroska
File size                        : 1.45 GiB
Duration                         : 1h 59mn
Overall bit rate                 : 1 743 Kbps


Video
ID                               : 1
Format                           : AVC
Format/Info                      : Advanced Video Codec
Format profile                   : High@L3.0
Format settings, CABAC           : Yes
Format settings, ReFrames        : 3 frames
Muxing mode                      : Container profile=Unknown@3.0
Codec ID                         : V_MPEG4/ISO/AVC
Duration                         : 1h 59mn
Bit rate                         : 1 363 Kbps
Width                            : 720 pixels
Height                           : 400 pixels
Display aspect ratio             : 16:9
Frame rate                       : 23.976 fps
Color space                      : YUV
Chroma subsampling               : 4:2:0
Bit depth                        : 8 bits
Scan type                        : Progressive
Bits/(Pixel*Frame)               : 0.197
Stream size                      : 1.10 GiB (76%)
Writing library                  : x264 core 79


Audio
ID                               : 2
Format                           : AC-3
Format/Info                      : Audio Coding 3
Mode extension                   : CM (complete main)
Codec ID                         : A_AC3
Duration                         : 1h 59mn
Bit rate mode                    : Constant
Bit rate                         : 384 Kbps
Channel(s)                       : 6 channels
Channel positions                : Front: L C R, Side: L R, LFE
Sampling rate                    : 48.0 KHz
Stream size                      : 328 MiB (22%)
Language                         : English